<svg xmlns="http://www.w3.org/2000/svg" viewBox="0 0 64 64" aria-labelledby="title"
aria-describedby="desc" role="img" xmlns:xlink="http://www.w3.org/1999/xlink"
width="128" height="128">
  <title>Geotag</title>
  <desc>A flat styled icon from Orion Icon Library.</desc>
  <path data-name="layer2"
  d="M51.994 46H35.028A22.843 22.843 0 0 0 33 55.334h-2A22.851 22.851 0 0 0 28.969 46H12L4 62h56z"
  fill="#dcebf5"></path>
  <path data-name="layer1" d="M32 1a17.019 17.019 0 0 0-17 17v.1a16.615 16.615 0 0 0 .143 2c.67 6.193 4.247 11.167 7.705 15.978C26.856 41.658 31 47.42 31 55.334h2c0-7.914 4.143-13.675 8.15-19.247 3.457-4.808 7.032-9.779 7.7-15.945A16.543 16.543 0 0 0 49 18 17.019 17.019 0 0 0 32 1zm4 17a4 4 0 1 1-4-4 4 4 0 0 1 3.994 4z"
  fill="#f27e7c"></path>
  <path data-name="opacity" d="M28.969 46H12L4 62l29-6.664h-2A22.851 22.851 0 0 0 28.969 46z"
  fill="#000064" opacity=".15"></path>
  <path data-name="opacity" d="M32 22a4 4 0 1 1 0-8V1a17.019 17.019 0 0 0-17 17v.1a16.615 16.615 0 0 0 .143 2c.67 6.193 4.247 11.167 7.705 15.978C26.856 41.658 31 47.42 31 55.334h1z"
  fill="#000064" opacity=".15"></path>
</svg>